Screens:
 
http://www.postimg.com/image/70000/photo-69883.jpg 
http://www.postimg.com/image/70000/photo-69884.jpg 
http://www.postimg.com/image/70000/photo-69885.jpg 
http://www.postimg.com/image/70000/photo-69886.jpg

ScreenCaps:
 
http://www.postimg.com/image/70000/photo-69891.jpg

John Carter (2012) DVDRip XviD-MAX
Format                                   : AVI
Format/Info                              : Audio Video Interleave
Format profile                           : OpenDML
Format settings                          : rec
File size                                : 1.30 GiB
Duration                                 : 2h 12mn
Overall bit rate                         : 1 406 Kbps
Writing application                      : VirtualDubMod 1.5.10.2 (build 2542/release)
Writing library                          : VirtualDubMod build 2542/release
Original source form                     : MAX TORRENTZ
Copyright                                : SIGISMUNT

Video
ID                                       : 0
Format                                   : MPEG-4 Visual
Format profile                           : Advanced Simple@L5
Format settings, BVOP                    : 2
Format settings, QPel                    : No
Format settings, GMC                     : No warppoints
Format settings, Matrix                  : Default (MPEG)
Codec ID                                 : XVID
Codec ID/Hint                            : XviD
Duration                                 : 2h 12mn
Bit rate                                 : 1 081 Kbps
Width                                    : 608 pixels
Height                                   : 256 pixels
Display aspect ratio                     : 2.40:1
Frame rate                               : 23.976 fps
Color space                              : YUV
Chroma subsampling                       : 4:2:0
Bit depth                                : 8 bits
Scan type                                : Progressive
Compression mode                         : Lossy
Bits/(Pixel*Frame)                       : 0.290
Stream size                              : 1 021 MiB (77%)
Writing library                          : XviD 64

Audio
ID                                       : 1
Format                                   : AC-3
Format/Info                              : Audio Coding 3
Mode extension                           : CM (complete main)
Format settings, Endianness              : Big
Codec ID                                 : 2000
Duration                                 : 2h 12mn
Bit rate mode                            : Constant
Bit rate                                 : 320 Kbps
Channel(s)                               : 6 channels
Channel positions                        : Front: L C R, Side: L R, LFE
Sampling rate                            : 48.0 KHz
Bit depth                                : 16 bits
Compression mode                         : Lossy
Stream size                              : 302 MiB (23%)
Alignment                                : Aligned on interleaves
Interleave, duration                     : 64 ms (1.53 video frames)
Interleave, preload duration             : 192 ms

Source: DVD (perfect a/v/sync quality,sample included)
This torrent is not seedbox supported,please seed it to the MAX